<svg width="29" height="29" viewBox="0 0 29 29" fill="none" xmlns="http://www.w3.org/2000/svg">
<path d="M10.2292 9.40011V5.88583C10.2292 5.26446 10.476 4.66855 10.9154 4.22918C11.3548 3.7898 11.9507 3.54297 12.5721 3.54297H17.2578C17.8791 3.54297 18.4751 3.7898 18.9144 4.22918C19.3538 4.66855 19.6006 5.26446 19.6006 5.88583V9.40011H23.1149C23.7363 9.40011 24.3322 9.64695 24.7716 10.0863C25.2109 10.5257 25.4578 11.1216 25.4578 11.743V22.2858C25.4578 22.9072 25.2109 23.5031 24.7716 23.9425C24.3322 24.3818 23.7363 24.6287 23.1149 24.6287H6.71493C6.09356 24.6287 5.49765 24.3818 5.05828 23.9425C4.61891 23.5031 4.37207 22.9072 4.37207 22.2858V11.743C4.37207 11.1216 4.61891 10.5257 5.05828 10.0863C5.49765 9.64695 6.09356 9.40011 6.71493 9.40011H10.2292ZM6.71493 11.743V22.2858H23.1149V11.743H19.5983V15.2573H17.2578V11.743H12.5721V15.2573H10.2292V11.743H6.71493ZM12.5721 9.40011H17.2578V5.88583H12.5721V9.40011Z" fill="#F77E23"/>
</svg>
