<svg width="30" height="31" viewBox="0 0 30 31" fill="none" xmlns="http://www.w3.org/2000/svg">
<path fill-rule="evenodd" clip-rule="evenodd" d="M20.9379 22.0271L11.5629 15.7771L20.9379 9.52713C21.0611 9.44505 21.1668 9.33953 21.2491 9.21659C21.3315 9.09364 21.3888 8.95569 21.4178 8.8106C21.4468 8.66551 21.447 8.51612 21.4183 8.37097C21.3895 8.22581 21.3325 8.08774 21.2504 7.96463C21.1684 7.84151 21.0628 7.73577 20.9399 7.65344C20.817 7.5711 20.679 7.51379 20.5339 7.48477C20.3888 7.45575 20.2394 7.4556 20.0943 7.48431C19.9491 7.51303 19.8111 7.57005 19.6879 7.65213L9.06044 14.7371C8.88924 14.8513 8.74887 15.0059 8.65179 15.1874C8.5547 15.3688 8.50391 15.5714 8.50391 15.7771C8.50391 15.9829 8.5547 16.1855 8.65179 16.3669C8.74887 16.5483 8.88924 16.703 9.06044 16.8171L19.6879 23.9021C19.8111 23.9842 19.9491 24.0412 20.0943 24.0699C20.2394 24.0987 20.3888 24.0985 20.5339 24.0695C20.679 24.0405 20.817 23.9832 20.9399 23.9008C21.0628 23.8185 21.1684 23.7127 21.2504 23.5896C21.3325 23.4665 21.3895 23.3284 21.4183 23.1833C21.447 23.0381 21.4468 22.8887 21.4178 22.7437C21.3888 22.5986 21.3315 22.4606 21.2491 22.3377C21.1668 22.2147 21.0611 22.1092 20.9379 22.0271Z" fill="#F77E23"/>
</svg>
