<svg width="30" height="31" viewBox="0 0 30 31" fill="none" xmlns="http://www.w3.org/2000/svg">
<path fill-rule="evenodd" clip-rule="evenodd" d="M9.06206 22.0271L18.4371 15.7771L9.06206 9.52713C8.93895 9.44505 8.83321 9.33953 8.75087 9.21659C8.66854 9.09364 8.61123 8.95569 8.58221 8.8106C8.55319 8.66551 8.55303 8.51612 8.58175 8.37097C8.61046 8.22581 8.66749 8.08774 8.74956 7.96463C8.83164 7.84151 8.93716 7.73577 9.0601 7.65344C9.18305 7.5711 9.321 7.51379 9.46609 7.48477C9.61118 7.45575 9.76057 7.4556 9.90572 7.48431C10.0509 7.51303 10.1889 7.57005 10.3121 7.65213L20.9396 14.7371C21.1108 14.8513 21.2511 15.0059 21.3482 15.1874C21.4453 15.3688 21.4961 15.5714 21.4961 15.7771C21.4961 15.9829 21.4453 16.1855 21.3482 16.3669C21.2511 16.5483 21.1108 16.703 20.9396 16.8171L10.3121 23.9021C10.1889 23.9842 10.0509 24.0412 9.90572 24.0699C9.76057 24.0987 9.61118 24.0985 9.46609 24.0695C9.321 24.0405 9.18305 23.9832 9.0601 23.9008C8.93716 23.8185 8.83164 23.7127 8.74956 23.5896C8.66749 23.4665 8.61046 23.3284 8.58175 23.1833C8.55303 23.0381 8.55319 22.8887 8.58221 22.7437C8.61123 22.5986 8.66854 22.4606 8.75087 22.3377C8.83321 22.2147 8.93895 22.1092 9.06206 22.0271Z" fill="#F77E23"/>
</svg>
