<svg width="41" height="42" viewBox="0 0 41 42" fill="none" xmlns="http://www.w3.org/2000/svg">
<rect y="0.925781" width="41" height="41" rx="20.5" fill="#FFE7DB"/>
<g clip-path="url(#clip0_1_3393)">
<path d="M14 16.7539C14.885 16.3839 16.154 15.9849 17.388 15.8609C18.718 15.7269 19.846 15.9239 20.5 16.6129V26.3589C19.565 25.8289 18.38 25.7559 17.287 25.8659C16.107 25.9859 14.917 26.3269 14 26.6769V16.7539ZM21.5 16.6129C22.154 15.9239 23.282 15.7269 24.612 15.8609C25.846 15.9849 27.115 16.3839 28 16.7539V26.6769C27.082 26.3269 25.893 25.9849 24.713 25.8669C23.619 25.7559 22.435 25.8279 21.5 26.3589V16.6129ZM21 15.7089C20.015 14.8619 18.587 14.7359 17.287 14.8659C15.773 15.0189 14.245 15.5379 13.293 15.9709C13.2056 16.0106 13.1316 16.0747 13.0796 16.1553C13.0277 16.236 13 16.3299 13 16.4259V27.4259C13 27.5096 13.021 27.5919 13.0611 27.6653C13.1012 27.7387 13.1591 27.8009 13.2294 27.8462C13.2998 27.8915 13.3803 27.9184 13.4638 27.9245C13.5472 27.9305 13.6308 27.9155 13.707 27.8809C14.589 27.4809 16.01 26.9999 17.387 26.8609C18.796 26.7189 19.977 26.9479 20.61 27.7379C20.6569 27.7963 20.7162 27.8434 20.7837 27.8758C20.8512 27.9082 20.9251 27.925 21 27.925C21.0749 27.925 21.1488 27.9082 21.2163 27.8758C21.2838 27.8434 21.3431 27.7963 21.39 27.7379C22.023 26.9479 23.204 26.7189 24.612 26.8609C25.99 26.9999 27.412 27.4809 28.293 27.8809C28.3692 27.9155 28.4528 27.9305 28.5362 27.9245C28.6197 27.9184 28.7002 27.8915 28.7706 27.8462C28.8409 27.8009 28.8988 27.7387 28.9389 27.6653C28.979 27.5919 29 27.5096 29 27.4259V16.4259C29 16.3299 28.9723 16.236 28.9204 16.1553C28.8684 16.0747 28.7944 16.0106 28.707 15.9709C27.755 15.5379 26.227 15.0189 24.713 14.8659C23.413 14.7349 21.985 14.8619 21 15.7089Z" fill="#F77E23"/>
</g>
<defs>
<clipPath id="clip0_1_3393">
<rect width="16" height="16" fill="white" transform="translate(13 13.9258)"/>
</clipPath>
</defs>
</svg>
